<?xml version="1.0" encoding="UTF-8"?>
<svg xmlns="http://www.w3.org/2000/svg" xmlns:xlink="http://www.w3.org/1999/xlink" width="3349" height="4309" viewBox="0 0 3349 4309">
<path fill-rule="nonzero" fill="rgb(100%, 100%, 100%)" fill-opacity="1" stroke-width="294.279" stroke-linecap="butt" stroke-linejoin="miter" stroke="rgb(0%, 0%, 0%)" stroke-opacity="1" stroke-miterlimit="4" d="M 6343.125 3030.976562 C 5021.679688 12133.710938 3256.132812 29390.898438 10788.710938 36186.914062 C 16502.617188 41353.789062 22064.296875 39116.40625 24795.195312 35760.3125 C 27812.109375 32060.195312 27941.992188 23516.601562 29728.007812 16073.90625 C 30389.101562 11324.101562 32866.71875 7541.289062 30119.21875 5827.851562 C 28176.601562 4565.390625 26329.414062 7347.5 25404.21875 6078.398438 C 22858.398438 2303.59375 20780.3125 5673.28125 19801.601562 4249.960938 C 16846.09375 225.664062 14663.398438 4172.421875 13102.8125 2726.25 C 10184.804688 -281.171875 7290.703125 -1225.078125 6343.125 3030.976562 Z M 6343.125 3030.976562 " transform="matrix(0.1, 0, 0, -0.1, 0, 4309)"/>
<path fill="none" stroke-width="294.279" stroke-linecap="round" stroke-linejoin="round" stroke="rgb(0%, 0%, 0%)" stroke-opacity="1" stroke-miterlimit="4" d="M 18967.695312 17463.203125 C 18967.695312 17457.890625 18967.695312 17452.5 18967.695312 17447.1875 C 18967.695312 16573.710938 18140.117188 15865.585938 17119.296875 15865.585938 C 16628.984375 15865.585938 16158.90625 16032.1875 15812.1875 16328.789062 C 15465.585938 16625.390625 15270.78125 17027.695312 15270.78125 17447.1875 C 15270.78125 17452.5 15270.78125 17457.890625 15270.78125 17463.203125 " transform="matrix(0.1, 0, 0, -0.1, 0, 4309)"/>
<path fill-rule="nonzero" fill="rgb(0%, 0%, 0%)" fill-opacity="1" d="M 484.457031 1499.460938 L 500.054688 1501.121094 C 570.648438 1508.640625 621.429688 1571.53125 613.910156 1642.121094 L 531.390625 2416.871094 C 523.871094 2487.46875 460.988281 2538.25 390.394531 2530.730469 L 374.796875 2529.070312 C 304.203125 2521.550781 253.425781 2458.660156 260.941406 2388.070312 L 343.460938 1613.320312 C 350.980469 1542.730469 413.863281 1491.941406 484.457031 1499.460938 Z M 484.457031 1499.460938 "/>
<path fill-rule="nonzero" fill="rgb(0%, 0%, 0%)" fill-opacity="1" d="M 270.535156 1586.289062 L 282.847656 1587.601562 C 338.578125 1593.53125 378.667969 1643.179688 372.730469 1698.910156 L 307.585938 2310.558594 C 301.652344 2366.289062 252.003906 2406.378906 196.273438 2400.441406 L 183.960938 2399.128906 C 128.226562 2393.199219 88.140625 2343.550781 94.074219 2287.820312 L 159.21875 1676.179688 C 165.15625 1620.441406 214.800781 1580.351562 270.535156 1586.289062 Z M 270.535156 1586.289062 "/>
<path fill-rule="nonzero" fill="rgb(0%, 0%, 0%)" fill-opacity="1" d="M 20.253906 1877.089844 L 148.363281 1890.738281 L 128.652344 2075.78125 L 0.546875 2062.140625 Z M 20.253906 1877.089844 "/>
<path fill-rule="nonzero" fill="rgb(0%, 0%, 0%)" fill-opacity="1" d="M 2823.808594 1040.839844 L 2808.378906 1043.660156 C 2738.539062 1056.441406 2692.609375 1122.949219 2705.390625 1192.789062 L 2845.628906 1959.191406 C 2858.410156 2029.019531 2924.921875 2074.960938 2994.75 2062.179688 L 3010.179688 2059.359375 C 3080.019531 2046.578125 3125.941406 1980.070312 3113.171875 1910.230469 L 2972.929688 1143.828125 C 2960.148438 1074 2893.640625 1028.058594 2823.808594 1040.839844 Z M 2823.808594 1040.839844 "/>
<path fill-rule="nonzero" fill="rgb(0%, 0%, 0%)" fill-opacity="1" d="M 3043.628906 1111.421875 L 3031.449219 1113.648438 C 2976.308594 1123.738281 2940.050781 1176.238281 2950.140625 1231.371094 L 3060.859375 1836.429688 C 3070.941406 1891.558594 3123.449219 1927.828125 3178.578125 1917.738281 L 3190.769531 1915.511719 C 3245.890625 1905.421875 3282.160156 1852.910156 3272.070312 1797.78125 L 3161.351562 1192.730469 C 3151.261719 1137.589844 3098.761719 1101.328125 3043.628906 1111.421875 Z M 3043.628906 1111.421875 "/>
<path fill-rule="nonzero" fill="rgb(0%, 0%, 0%)" fill-opacity="1" d="M 3314.960938 1382.691406 L 3188.230469 1405.871094 L 3221.730469 1588.929688 L 3348.449219 1565.738281 Z M 3314.960938 1382.691406 "/>
<path fill="none" stroke-width="294.28" stroke-linecap="round" stroke-linejoin="round" stroke="rgb(0%, 0%, 0%)" stroke-opacity="1" stroke-miterlimit="4" d="M 533.063405 -24175.59339 C 354.168432 -33147.509964 5276.895461 -41490.31401 14118.411494 -42878.084129 C 22960.005408 -44265.893432 31284.89114 -38180.802026 32780.498283 -29237.098534 " transform="matrix(0.100312, 0, 0, 0.0996878, 0, 4309)"/>
<path fill="none" stroke-width="294.28" stroke-linecap="round" stroke-linejoin="round" stroke="rgb(0%, 0%, 0%)" stroke-opacity="1" stroke-miterlimit="4" d="M 24500.394706 -40814.806639 C 24104.793046 -38698.198588 20397.181107 -42572.089752 15004.397218 -41725.618945 C 9611.613329 -40879.187323 7145.83001 -37358.116414 6811.9109 -39485.38274 " transform="matrix(0.100312, 0, 0, 0.0996878, 0, 4309)"/>
<path fill-rule="nonzero" fill="rgb(0%, 0%, 0%)" fill-opacity="1" stroke-width="294.279" stroke-linecap="round" stroke-linejoin="round" stroke="rgb(0%, 0%, 0%)" stroke-opacity="1" stroke-miterlimit="4" d="M 12205.117188 26646.71875 C 12205.117188 26162.1875 11933.203125 25769.414062 11597.8125 25769.414062 C 11262.382812 25769.414062 10990.507812 26162.1875 10990.507812 26646.71875 C 10990.507812 27131.210938 11262.382812 27523.90625 11597.8125 27523.90625 C 11933.203125 27523.90625 12205.117188 27131.210938 12205.117188 26646.71875 Z M 12205.117188 26646.71875 " transform="matrix(0.1, 0, 0, -0.1, 0, 4309)"/>
<path fill-rule="nonzero" fill="rgb(0%, 0%, 0%)" fill-opacity="1" stroke-width="294.279" stroke-linecap="round" stroke-linejoin="round" stroke="rgb(0%, 0%, 0%)" stroke-opacity="1" stroke-miterlimit="4" d="M 21719.804688 26646.71875 C 21719.804688 26162.1875 21447.890625 25769.414062 21112.5 25769.414062 C 20777.109375 25769.414062 20505.195312 26162.1875 20505.195312 26646.71875 C 20505.195312 27131.210938 20777.109375 27523.90625 21112.5 27523.90625 C 21447.890625 27523.90625 21719.804688 27131.210938 21719.804688 26646.71875 Z M 21719.804688 26646.71875 " transform="matrix(0.1, 0, 0, -0.1, 0, 4309)"/>
<path fill="none" stroke-width="147.14" stroke-linecap="round" stroke-linejoin="round" stroke="rgb(0%, 0%, 0%)" stroke-opacity="1" stroke-miterlimit="4" d="M 16422.382812 26444.296875 C 16422.382812 25012.5 15896.210938 23639.414062 14959.492188 22626.992188 C 14022.890625 21614.609375 12752.5 21045.898438 11427.8125 21045.898438 C 10103.203125 21045.898438 8832.773438 21614.609375 7896.132812 22626.992188 C 6959.453125 23639.414062 6433.242188 25012.5 6433.242188 26444.296875 C 6433.242188 27876.015625 6959.453125 29249.101562 7896.132812 30261.484375 C 8832.773438 31273.90625 10103.203125 31842.695312 11427.8125 31842.695312 C 12752.5 31842.695312 14022.890625 31273.90625 14959.492188 30261.484375 C 15896.210938 29249.101562 16422.382812 27876.015625 16422.382812 26444.296875 Z M 16422.382812 26444.296875 " transform="matrix(0.1, 0, 0, -0.1, 0, 4309)"/>
<path fill="none" stroke-width="147.14" stroke-linecap="round" stroke-linejoin="round" stroke="rgb(0%, 0%, 0%)" stroke-opacity="1" stroke-miterlimit="4" d="M 27542.1875 26444.296875 C 27542.1875 25012.5 27015.898438 23639.414062 26079.296875 22626.992188 C 25142.617188 21614.609375 23872.1875 21045.898438 22547.617188 21045.898438 C 21222.890625 21045.898438 19952.5 21614.609375 19015.898438 22626.992188 C 18079.21875 23639.414062 17553.007812 25012.5 17553.007812 26444.296875 C 17553.007812 27876.015625 18079.21875 29249.101562 19015.898438 30261.484375 C 19952.5 31273.90625 21222.890625 31842.695312 22547.617188 31842.695312 C 23872.1875 31842.695312 25142.617188 31273.90625 26079.296875 30261.484375 C 27015.898438 29249.101562 27542.1875 27876.015625 27542.1875 26444.296875 Z M 27542.1875 26444.296875 " transform="matrix(0.1, 0, 0, -0.1, 0, 4309)"/>
<path fill="none" stroke-width="98.0929" stroke-linecap="butt" stroke-linejoin="miter" stroke="rgb(0%, 0%, 0%)" stroke-opacity="1" stroke-miterlimit="4" d="M 16423.203125 26594.296875 L 17581.601562 26597.1875 " transform="matrix(0.1, 0, 0, -0.1, 0, 4309)"/>
<path fill="none" stroke-width="98.0929" stroke-linecap="butt" stroke-linejoin="miter" stroke="rgb(0%, 0%, 0%)" stroke-opacity="1" stroke-miterlimit="4" d="M 16408.90625 26113.28125 L 17581.601562 26112.890625 " transform="matrix(0.1, 0, 0, -0.1, 0, 4309)"/>
</svg>
